<svg width="24" height="24" viewBox="0 0 24 24" fill="none" xmlns="http://www.w3.org/2000/svg">
<rect x="3.5" y="3.5" width="17" height="18" rx="0.5" stroke="white"/>
<path d="M16.4375 16.8H8.5625C8.41332 16.8 8.27024 16.8632 8.16475 16.9757C8.05926 17.0883 8 17.2409 8 17.4C8 17.5591 8.05926 17.7117 8.16475 17.8243C8.27024 17.9368 8.41332 18 8.5625 18H16.4375C16.5867 18 16.7298 17.9368 16.8352 17.8243C16.9407 17.7117 17 17.5591 17 17.4C17 17.2409 16.9407 17.0883 16.8352 16.9757C16.7298 16.8632 16.5867 16.8 16.4375 16.8ZM12.1006 15.426C12.1541 15.4806 12.2172 15.5234 12.2863 15.552C12.3536 15.5837 12.4264 15.6001 12.5 15.6001C12.5736 15.6001 12.6464 15.5837 12.7137 15.552C12.7828 15.5234 12.8459 15.4806 12.8994 15.426L15.1494 13.026C15.2553 12.913 15.3148 12.7598 15.3148 12.6C15.3148 12.4402 15.2553 12.287 15.1494 12.174C15.0435 12.061 14.8998 11.9975 14.75 11.9975C14.6002 11.9975 14.4565 12.061 14.3506 12.174L13.0625 13.554V6.6C13.0625 6.44087 13.0032 6.28826 12.8977 6.17574C12.7923 6.06321 12.6492 6 12.5 6C12.3508 6 12.2077 6.06321 12.1023 6.17574C11.9968 6.28826 11.9375 6.44087 11.9375 6.6V13.554L10.6494 12.174C10.5969 12.1181 10.5347 12.0737 10.4661 12.0434C10.3976 12.0131 10.3242 11.9975 10.25 11.9975C10.1758 11.9975 10.1024 12.0131 10.0339 12.0434C9.96533 12.0737 9.90307 12.1181 9.85063 12.174C9.79818 12.2299 9.75658 12.2964 9.72819 12.3695C9.69981 12.4425 9.6852 12.5209 9.6852 12.6C9.6852 12.6791 9.69981 12.7575 9.72819 12.8306C9.75658 12.9036 9.79818 12.9701 9.85063 13.026L12.1006 15.426Z" fill="white"/>
</svg>
