<svg width="24" height="24" viewBox="0 0 24 24" fill="none" xmlns="http://www.w3.org/2000/svg">
<path d="M20.808 14.7693H16.4418C16.5585 13.8508 16.6164 12.9259 16.6153 12C16.6153 11.04 16.5544 10.1114 16.4418 9.23081H20.808C21.089 10.127 21.2316 11.0608 21.2307 12C21.2307 12.9647 21.083 13.8951 20.808 14.7693ZM20.4627 15.6923C19.8907 16.9999 19.024 18.1573 17.9302 19.0741C16.8365 19.9909 15.5454 20.6421 14.1581 20.977C15.132 19.8434 15.8981 17.9677 16.3015 15.6923H20.4627ZM3.19197 14.7693C2.91092 13.8731 2.76836 12.9393 2.7692 12C2.7692 11.0354 2.91689 10.105 3.19197 9.23081H7.55812C7.4455 10.1114 7.38458 11.04 7.38458 12C7.38458 12.96 7.4455 13.8887 7.55812 14.7693H3.19197ZM3.5372 15.6923H7.69935C8.10273 17.9668 8.86889 19.8434 9.84089 20.977C8.45373 20.642 7.16287 19.9907 6.0693 19.0739C4.97573 18.1571 4.10909 16.9998 3.5372 15.6923ZM15.5233 14.7693H8.47658C8.36283 13.8506 8.30641 12.9257 8.30766 12C8.30641 11.0743 8.36283 10.1495 8.47658 9.23081H15.5233C15.6371 10.1495 15.6935 11.0743 15.6923 12C15.6923 12.9647 15.6332 13.8951 15.5233 14.7693ZM15.3849 15.6923C14.8153 18.9527 13.5138 21.2308 12 21.2308C10.4861 21.2308 9.18458 18.9527 8.61504 15.6923H15.3849ZM20.4618 8.30773H16.3015C15.8981 6.03327 15.132 4.15665 14.16 3.02311C15.547 3.35818 16.8376 4.00958 17.931 4.92635C19.0244 5.84313 19.8909 7.00043 20.4627 8.30773H20.4618ZM3.5372 8.30773C4.10919 7.00021 4.97596 5.84278 6.0697 4.92599C7.16344 4.0092 8.45448 3.35793 9.84181 3.02311C8.86796 4.15665 8.10181 6.03235 7.69843 8.30773H3.53627H3.5372ZM15.3849 8.30773H8.61504C9.18458 5.04742 10.4861 2.76927 12 2.76927C13.5138 2.76927 14.8153 5.04742 15.3849 8.30773ZM12 22.1539C17.6077 22.1539 22.1538 17.6077 22.1538 12C22.1538 6.39234 17.6077 1.84619 12 1.84619C6.39227 1.84619 1.84612 6.39234 1.84612 12C1.84612 17.6077 6.39227 22.1539 12 22.1539Z" fill="white"/>
</svg>
