<svg width="23" height="23" viewBox="0 0 23 23" fill="none" xmlns="http://www.w3.org/2000/svg">
<mask id="path-1-inside-1" fill="white">
<path fill-rule="evenodd" clip-rule="evenodd" d="M21.0291 16.0255C20.6578 16.0687 20.2798 16.0901 19.8965 16.0883C14.7485 16.0643 10.5946 11.8716 10.6185 6.72351C10.6268 4.95303 11.1281 3.30013 11.9917 1.89432C7.37511 2.43159 3.78178 6.34472 3.7596 11.1095C3.73563 16.2576 7.88953 20.4503 13.0376 20.4743C16.4152 20.49 19.3815 18.7074 21.0291 16.0255Z"/>
</mask>
<path d="M21.0291 16.0255L21.8812 16.5489L22.9593 14.7941L20.9135 15.0322L21.0291 16.0255ZM11.9917 1.89432L12.8438 2.41778L13.9219 0.662955L11.8761 0.901027L11.9917 1.89432ZM20.9135 15.0322C20.582 15.0708 20.2442 15.0899 19.9012 15.0883L19.8919 17.0883C20.3154 17.0902 20.7336 17.0666 21.1447 17.0188L20.9135 15.0322ZM19.9012 15.0883C15.3054 15.0669 11.5971 11.3239 11.6185 6.72817L9.61854 6.71886C9.59201 12.4192 14.1915 17.0617 19.8919 17.0883L19.9012 15.0883ZM11.6185 6.72817C11.6259 5.14603 12.0733 3.6719 12.8438 2.41778L11.1397 1.37086C10.1828 2.92837 9.62766 4.76003 9.61854 6.71886L11.6185 6.72817ZM4.75959 11.1142C4.77938 6.86127 7.98701 3.36712 12.1073 2.88762L11.8761 0.901027C6.76321 1.49605 2.78417 5.82817 2.75961 11.1048L4.75959 11.1142ZM13.0422 19.4743C8.44646 19.4529 4.73819 15.7099 4.75959 11.1142L2.75961 11.1048C2.73307 16.8052 7.33259 21.4477 13.0329 21.4743L13.0422 19.4743ZM20.1771 15.502C18.7046 17.8988 16.0563 19.4883 13.0422 19.4743L13.0329 21.4743C16.774 21.4917 20.0584 19.5159 21.8812 16.5489L20.1771 15.502Z" fill="black" mask="url(#path-1-inside-1)"/>
</svg>
