<svg width="24" height="24" viewBox="0 0 24 24" fill="none" xmlns="http://www.w3.org/2000/svg">
<path d="M18.7433 17.7305L17.492 15.3518V10.3254C17.492 9.24384 17.1294 8.10528 16.472 7.12091C15.8048 6.12047 14.8867 5.35421 13.8294 4.91539C13.8221 4.91247 13.8141 4.90808 13.8061 4.90662C13.7547 4.88897 13.7031 4.87192 13.6514 4.85547V4.78239C13.6514 3.80021 12.9114 3 12.0021 3C11.0934 2.99927 10.3528 3.79948 10.3528 4.78166V4.84304C10.2768 4.86643 10.2341 4.88324 10.2341 4.88324L10.2161 4.88982C9.1628 5.29833 8.20681 6.081 7.52548 7.09095C6.85549 8.08408 6.4855 9.23361 6.4855 10.3261V15.3518L5.13818 17.9117C5.04711 18.0835 4.99942 18.2788 5.00001 18.4775C5.00059 18.6762 5.04943 18.8711 5.14152 19.0422C5.32818 19.3901 5.67484 19.6064 6.04884 19.6064H9.31546C9.43337 20.2592 9.7494 20.8491 10.2121 21.2799C10.7115 21.7448 11.3453 22 12.0004 22C12.6556 22 13.2894 21.7448 13.7887 21.2799C14.2513 20.8488 14.5675 20.2591 14.6861 19.6064H17.9527C18.53 19.6064 19 19.0978 19 18.4737C19 18.1974 18.908 17.9358 18.7433 17.7305ZM13.6181 19.6064C13.5041 19.9781 13.2867 20.3013 12.9965 20.5305C12.7063 20.7598 12.3578 20.8836 12.0001 20.8845C11.6424 20.8834 11.294 20.7594 11.0039 20.53C10.7139 20.3006 10.4966 19.9774 10.3828 19.6057L13.6181 19.6064ZM17.718 18.4883H6.04817C6.04217 18.4883 6.03817 18.4854 6.03817 18.4832C6.0335 18.4781 6.0335 18.4708 6.03817 18.4671L7.45415 15.7742C7.4983 15.6904 7.52131 15.5953 7.52082 15.4986V10.3254C7.52082 8.5094 8.82547 6.62543 10.5568 5.94142C10.6168 5.92022 11.0581 5.77407 11.5034 5.69222C11.5345 5.69458 11.5658 5.69384 11.5968 5.69003C11.6634 5.68272 11.7234 5.67249 11.7781 5.66445C11.8581 5.65203 11.9268 5.63887 11.9874 5.63887C12.0481 5.63887 12.1174 5.6491 12.1994 5.66445C12.2561 5.67249 12.3148 5.68345 12.3794 5.69003C12.4069 5.69288 12.4345 5.69361 12.4621 5.69222C12.9201 5.77626 13.3787 5.92899 13.4747 5.96261C15.1747 6.66124 16.4554 8.53498 16.4554 10.3232V15.4972C16.4557 15.5938 16.4786 15.6887 16.522 15.7727L17.8713 18.3378C17.8947 18.3845 17.926 18.4254 17.9613 18.4635C17.9613 18.4635 17.964 18.4649 17.964 18.4708C17.964 18.4832 17.9533 18.4832 17.9493 18.4832L17.7167 18.4883H17.718ZM12.4988 4.56827C12.4745 4.56354 12.45 4.56109 12.4254 4.56096C12.4088 4.56096 12.3954 4.56096 12.3801 4.56315C12.3694 4.56169 12.3601 4.56169 12.3501 4.5595C12.2298 4.53704 12.1081 4.52482 11.9861 4.52296C11.8494 4.52296 11.7294 4.54269 11.6221 4.5595L11.6001 4.56315C11.5381 4.55757 11.4756 4.56201 11.4148 4.57631C11.4556 4.44168 11.5342 4.32462 11.6393 4.24182C11.7444 4.15902 11.8707 4.1147 12.0001 4.11518C12.1308 4.1143 12.2583 4.1592 12.3641 4.24333C12.4698 4.32746 12.5483 4.44643 12.5881 4.58288C12.5581 4.5785 12.5288 4.57192 12.4988 4.56827Z" fill="white"/>
</svg>
