<svg width="24" height="24" viewBox="0 0 24 24" fill="none" xmlns="http://www.w3.org/2000/svg">
<path d="M19.5878 15.492L17.7738 14.202C18.0784 13.0818 18.0767 11.9003 17.7688 10.781L19.5888 9.50699L18.1358 6.99299L16.1118 7.91899C15.2937 7.09501 14.2694 6.50583 13.1458 6.21299L12.9528 3.99999H10.0468L9.85379 6.21299C8.73044 6.50623 7.70644 7.09576 6.88879 7.91999L4.86379 6.99399L3.41179 9.50799L5.23179 10.782C4.92371 11.9009 4.92164 13.082 5.22579 14.202L3.41179 15.492L4.86379 17.994L6.88879 17.067C7.70656 17.8908 8.73054 18.48 9.85379 18.773L10.0468 20.986H12.9528L13.1458 18.773C14.269 18.48 15.293 17.8908 16.1108 17.067L18.1358 17.994L19.5888 15.493L19.5878 15.492ZM13.5048 2.98499C13.6335 2.98485 13.7573 3.03436 13.8505 3.12321C13.9436 3.21206 13.9989 3.3334 14.0048 3.46199L14.1828 5.49699C14.922 5.77869 15.6116 6.17634 16.2258 6.67499L18.0758 5.81199C18.19 5.7532 18.3226 5.74065 18.4458 5.77696C18.5691 5.81327 18.6736 5.89564 18.7378 6.00699L20.7428 9.47699C20.8072 9.58821 20.8263 9.71998 20.7962 9.84493C20.766 9.96987 20.6889 10.0784 20.5808 10.148L18.9068 11.32C19.0348 12.118 19.0308 12.913 18.9078 13.679L20.5808 14.849C20.6891 14.9186 20.7664 15.0273 20.7966 15.1525C20.8268 15.2777 20.8075 15.4097 20.7428 15.521L18.7378 18.978C18.6736 19.0893 18.5691 19.1717 18.4458 19.208C18.3226 19.2443 18.19 19.2318 18.0758 19.173L16.2258 18.31C15.6238 18.8 14.9378 19.2 14.1828 19.489L14.0048 21.524C13.9986 21.6524 13.9432 21.7735 13.8501 21.8621C13.757 21.9508 13.6333 22.0001 13.5048 22H9.49479C9.36623 22.0001 9.24256 21.9508 9.14946 21.8621C9.05635 21.7735 9.00096 21.6524 8.99479 21.524L8.81679 19.489C8.07752 19.2069 7.38789 18.8089 6.77379 18.31L4.92379 19.173C4.80954 19.2322 4.67688 19.245 4.5534 19.2089C4.42991 19.1728 4.32511 19.0904 4.26079 18.979L2.25679 15.52C2.19236 15.4088 2.17325 15.277 2.20342 15.152C2.23359 15.0271 2.31071 14.9186 2.41879 14.849L4.09179 13.678C3.9665 12.8966 3.9665 12.1003 4.09179 11.319L2.41979 10.148C2.31198 10.0784 2.23503 9.97007 2.20488 9.84536C2.17473 9.72065 2.19367 9.58912 2.25779 9.47799L4.25979 6.00699C4.32395 5.89538 4.42868 5.81283 4.55218 5.77651C4.67567 5.74018 4.80842 5.75289 4.92279 5.81199L6.77279 6.67499C7.38692 6.17634 8.07656 5.77869 8.81579 5.49699L8.99379 3.46199C8.99971 3.3334 9.05499 3.21206 9.14812 3.12321C9.24126 3.03436 9.36507 2.98485 9.49379 2.98499H13.5038H13.5048ZM11.4998 8.99999C12.428 8.99999 13.3183 9.36873 13.9747 10.0251C14.631 10.6815 14.9998 11.5717 14.9998 12.5C14.9998 13.4282 14.631 14.3185 13.9747 14.9749C13.3183 15.6312 12.428 16 11.4998 16C10.5715 16 9.68129 15.6312 9.02491 14.9749C8.36854 14.3185 7.99979 13.4282 7.99979 12.5C7.99979 11.5717 8.36854 10.6815 9.02491 10.0251C9.68129 9.36873 10.5715 8.99999 11.4998 8.99999ZM11.4998 9.99999C10.8367 9.99999 10.2009 10.2634 9.73202 10.7322C9.26318 11.2011 8.99979 11.8369 8.99979 12.5C8.99979 13.163 9.26318 13.7989 9.73202 14.2678C10.2009 14.7366 10.8367 15 11.4998 15C12.1628 15 12.7987 14.7366 13.2676 14.2678C13.7364 13.7989 13.9998 13.163 13.9998 12.5C13.9998 11.8369 13.7364 11.2011 13.2676 10.7322C12.7987 10.2634 12.1628 9.99999 11.4998 9.99999Z" fill="white"/>
</svg>
